# xmcd
#
# Track frame offsets:
# 150
# 6231
# 15235
# 35337
# 36864
# 54313
# 65792
# 71114
# 85774
# 93493
# 100259
# 106134
# 117926
# 120363
# 130636
#
# Disc length: 1909 seconds
#
# Revision: 0
# Processed by: cddbd v1.4PL0 Copyright (c) Steve Scherf et al.
# Submitted via: Audion 3.0.2 (http://www.panic.com/audion/)
#
DISCID=b907730f
DTITLE=May 23rd 2007 - March 6th 2003
DYEAR=1900
DGENRE=
TTITLE0=Frozen Tongue (2.1)
TTITLE1=(remix)
TTITLE2=At the Hotel
TTITLE3=(...)
TTITLE4=Frozen Tongue
TTITLE5=I'am a letter
TTITLE6=(trumpet)
TTITLE7=The Flight East
TTITLE8=Every Feeble Thought
TTITLE9=(surgery)
TTITLE10=(...)
TTITLE11=_________
TTITLE12=(spring trumpet)
TTITLE13=Go Back to Greenland
TTITLE14=Frozen Tongue (...)
EXTD=
EXTT0=
EXTT1=
EXTT2=
EXTT3=
EXTT4=
EXTT5=
EXTT6=
EXTT7=
EXTT8=
EXTT9=
EXTT10=
EXTT11=
EXTT12=
EXTT13=
EXTT14=
PLAYORDER=
